<svg xmlns="http://www.w3.org/2000/svg" xmlns:xlink="http://www.w3.org/1999/xlink" viewBox="0 0 112 80"><defs><style>.cls-1{fill:#a6a6a6;}.cls-2{fill:#828282;}.cls-3{fill:url(#linear-gradient);}.cls-4{fill:url(#linear-gradient-2);}.cls-5{fill:#fff;opacity:0.15;}.cls-6{fill:#eaeaea;}.cls-7{fill:url(#linear-gradient-3);}.cls-8{fill:url(#linear-gradient-4);}.cls-9{fill:url(#linear-gradient-5);}.cls-10{fill:url(#linear-gradient-6);}.cls-11{fill:url(#linear-gradient-7);}.cls-12{fill:url(#linear-gradient-8);}.cls-13{fill:url(#linear-gradient-9);}.cls-14{fill:url(#linear-gradient-10);}.cls-15{fill:url(#linear-gradient-11);}.cls-16{fill:url(#linear-gradient-12);}.cls-17{fill:url(#linear-gradient-13);}.cls-18{fill:url(#linear-gradient-14);}.cls-19{fill:url(#linear-gradient-15);}.cls-20{fill:url(#linear-gradient-16);}.cls-21{fill:url(#linear-gradient-17);}.cls-22{fill:url(#linear-gradient-18);}.cls-23{fill:url(#linear-gradient-19);}.cls-24{fill:url(#linear-gradient-20);}</style><linearGradient id="linear-gradient" x1="19.07" y1="-4.01" x2="98.83" y2="91.05" gradientUnits="userSpaceOnUse"><stop offset="0" stop-opacity="0"/><stop offset="0.86" stop-opacity="0.13"/><stop offset="1" stop-opacity="0.2"/></linearGradient><linearGradient id="linear-gradient-2" x1="85.78" y1="-2.29" x2="83.36" y2="25.34" gradientUnits="userSpaceOnUse"><stop offset="0" stop-color="#828282" stop-opacity="0"/><stop offset="0.86" stop-color="#454545" stop-opacity="0.12"/><stop offset="1" stop-opacity="0.25"/></linearGradient><linearGradient id="linear-gradient-3" x1="17" y1="17.63" x2="17" y2="14.59" gradientUnits="userSpaceOnUse"><stop offset="0" stop-color="#828282" stop-opacity="0"/><stop offset="1" stop-opacity="0.07"/></linearGradient><linearGradient id="linear-gradient-4" y1="35.63" y2="32.59" xlink:href="#linear-gradient-3"/><linearGradient id="linear-gradient-5" y1="49.63" y2="46.59" xlink:href="#linear-gradient-3"/><linearGradient id="linear-gradient-6" y1="55.63" y2="52.59" xlink:href="#linear-gradient-3"/><linearGradient id="linear-gradient-7" y1="61.63" y2="58.59" xlink:href="#linear-gradient-3"/><linearGradient id="linear-gradient-8" y1="67.63" y2="64.59" xlink:href="#linear-gradient-3"/><linearGradient id="linear-gradient-9" y1="73.63" y2="70.59" xlink:href="#linear-gradient-3"/><linearGradient id="linear-gradient-10" y1="79.63" y2="76.59" xlink:href="#linear-gradient-3"/><linearGradient id="linear-gradient-11" x1="17" y1="13.81" x2="17" y2="12.29" gradientUnits="userSpaceOnUse"><stop offset="0" stop-color="#fff" stop-opacity="0"/><stop offset="0.21" stop-color="#fff" stop-opacity="0.02"/><stop offset="0.42" stop-color="#fff" stop-opacity="0.07"/><stop offset="0.64" stop-color="#fff" stop-opacity="0.15"/><stop offset="0.86" stop-color="#fff" stop-opacity="0.26"/><stop offset="1" stop-color="#fff" stop-opacity="0.35"/></linearGradient><linearGradient id="linear-gradient-12" y1="51.81" y2="50.29" xlink:href="#linear-gradient-11"/><linearGradient id="linear-gradient-13" y1="57.81" y2="56.29" xlink:href="#linear-gradient-11"/><linearGradient id="linear-gradient-14" y1="63.81" y2="62.29" xlink:href="#linear-gradient-11"/><linearGradient id="linear-gradient-15" y1="69.81" y2="68.29" xlink:href="#linear-gradient-11"/><linearGradient id="linear-gradient-16" y1="75.81" y2="74.29" xlink:href="#linear-gradient-11"/><linearGradient id="linear-gradient-17" y1="21.63" y2="18.59" xlink:href="#linear-gradient-11"/><linearGradient id="linear-gradient-18" y1="45.63" y2="42.59" xlink:href="#linear-gradient-11"/><linearGradient id="linear-gradient-19" x1="11" y1="17.63" x2="11" y2="14.59" xlink:href="#linear-gradient-11"/><linearGradient id="linear-gradient-20" x1="23" y1="17.63" x2="23" y2="14.59" xlink:href="#linear-gradient-11"/></defs><title>Artboard 133</title><g id="MODERN_FILE_REPRESENTATION" data-name="MODERN FILE REPRESENTATION"><polygon class="cls-1" points="0 80 0 12 56 12 68 0 112 0 112 80 0 80"/><polygon class="cls-2" points="68 0 56 12 68 24 112 24 112 0 68 0"/><polygon class="cls-3" points="0 80 0 12 56 12 68 0 112 0 112 80 0 80"/><polygon class="cls-4" points="68 0 56 12 68 24 112 24 112 0 68 0"/><polygon class="cls-5" points="112 24 112 26 67.08 26 53 12 56 12 68.08 24 112 24"/><rect class="cls-6" x="12" y="12" width="10" height="2"/><rect class="cls-6" x="12" y="56" width="10" height="2"/><rect class="cls-6" x="12" y="50" width="10" height="2"/><rect class="cls-6" x="12" y="62" width="10" height="2"/><rect class="cls-6" x="12" y="68" width="10" height="2"/><rect class="cls-6" x="12" y="74" width="10" height="2"/><rect class="cls-6" x="10" y="14" width="14" height="32"/><rect class="cls-1" x="12" y="32" width="10" height="10"/><rect class="cls-1" x="12" y="14" width="10" height="4"/><rect class="cls-7" x="12" y="14" width="10" height="4"/><rect class="cls-8" x="12" y="32" width="10" height="4"/><rect class="cls-9" x="10" y="46" width="14" height="4"/><rect class="cls-10" x="12" y="52" width="10" height="4"/><rect class="cls-11" x="12" y="58" width="10" height="4"/><rect class="cls-12" x="12" y="64" width="10" height="4"/><rect class="cls-13" x="12" y="70" width="10" height="4"/><rect class="cls-14" x="12" y="76" width="10" height="4"/><rect class="cls-15" x="12" y="12" width="10" height="2"/><rect class="cls-16" x="12" y="50" width="10" height="2"/><rect class="cls-17" x="12" y="56" width="10" height="2"/><rect class="cls-18" x="12" y="62" width="10" height="2"/><rect class="cls-19" x="12" y="68" width="10" height="2"/><rect class="cls-20" x="12" y="74" width="10" height="2"/><rect class="cls-21" x="12" y="18" width="10" height="4"/><rect class="cls-22" x="12" y="42" width="10" height="4"/><rect class="cls-23" x="10" y="14" width="2" height="4"/><rect class="cls-24" x="22" y="14" width="2" height="4"/></g></svg>